<svg width="422" height="422" viewBox="0 0 422 422" fill="none" xmlns="http://www.w3.org/2000/svg">
<mask id="mask0_21426_371" style="mask-type:luminance" maskUnits="userSpaceOnUse" x="0" y="0" width="422" height="422">
<circle cx="211" cy="211" r="211" fill="white"/>
</mask>
<g mask="url(#mask0_21426_371)">
<rect width="422" height="422" fill="#FFEECE"/>
<rect width="422" height="422" stroke="black" stroke-width="0.0431034" stroke-linejoin="bevel"/>
<rect width="422" height="422" stroke="black" stroke-width="0.0431034" stroke-linejoin="bevel"/>
<rect width="422" height="422" fill="url(#paint0_linear_21426_371)"/>
<g filter="url(#filter0_d_21426_371)">
<path d="M210.72 70.5772C210.881 70.4375 211.119 70.4375 211.279 70.5772L253.688 107.588C253.758 107.649 253.846 107.686 253.938 107.692L310.096 111.508C310.308 111.523 310.477 111.692 310.491 111.904L314.308 168.062C314.314 168.154 314.35 168.242 314.411 168.312L351.423 210.721C351.562 210.881 351.562 211.119 351.423 211.279L314.411 253.688C314.35 253.758 314.314 253.846 314.308 253.938L310.491 310.096C310.477 310.308 310.308 310.477 310.096 310.491L253.938 314.308C253.846 314.314 253.758 314.35 253.688 314.412L211.279 351.423C211.119 351.562 210.881 351.562 210.72 351.423L168.312 314.412C168.242 314.35 168.154 314.314 168.062 314.308L111.904 310.491C111.692 310.477 111.523 310.308 111.508 310.096L107.692 253.938C107.686 253.846 107.649 253.758 107.588 253.688L70.5771 211.279C70.4374 211.119 70.4374 210.881 70.5771 210.721L107.588 168.312C107.649 168.242 107.686 168.154 107.692 168.062L111.508 111.904C111.523 111.692 111.692 111.523 111.904 111.508L168.062 107.692C168.154 107.686 168.242 107.649 168.312 107.588L210.72 70.5772Z" fill="url(#paint1_radial_21426_371)"/>
</g>
<path fill-rule="evenodd" clip-rule="evenodd" d="M157.339 165.47C159.237 163.658 162.314 163.658 164.212 165.47L180.112 180.649C189.34 176.014 199.849 173.391 211 173.391C222.151 173.391 232.66 176.014 241.887 180.649L257.788 165.47C259.686 163.658 262.763 163.658 264.661 165.47C266.559 167.282 266.559 170.22 264.661 172.032L250.34 185.704C266.767 197.248 277.426 215.838 277.426 236.805C277.426 237.322 277.419 237.838 277.406 238.352H144.593C144.58 237.838 144.574 237.322 144.574 236.805C144.574 215.838 155.233 197.248 171.659 185.704L157.339 172.032C155.44 170.22 155.44 167.282 157.339 165.47ZM185.078 216.698C188.657 216.698 191.558 213.928 191.558 210.512C191.558 207.095 188.657 204.325 185.078 204.325C181.498 204.325 178.597 207.095 178.597 210.512C178.597 213.928 181.498 216.698 185.078 216.698ZM243.403 210.512C243.403 213.928 240.501 216.698 236.922 216.698C233.343 216.698 230.442 213.928 230.442 210.512C230.442 207.095 233.343 204.325 236.922 204.325C240.501 204.325 243.403 207.095 243.403 210.512Z" fill="#3CDB83"/>
</g>
<defs>
<filter id="filter0_d_21426_371" x="70.4724" y="70.4724" width="281.228" height="281.228" filterUnits="userSpaceOnUse" color-interpolation-filters="sRGB">
<feFlood flood-opacity="0" result="BackgroundImageFix"/>
<feColorMatrix in="SourceAlpha" type="matrix" values="0 0 0 0 0 0 0 0 0 0 0 0 0 0 0 0 0 0 127 0" result="hardAlpha"/>
<feOffset dx="0.172414" dy="0.172414"/>
<feComposite in2="hardAlpha" operator="out"/>
<feColorMatrix type="matrix" values="0 0 0 0 0.196078 0 0 0 0 0.423529 0 0 0 0 0.913725 0 0 0 1 0"/>
<feBlend mode="normal" in2="BackgroundImageFix" result="effect1_dropShadow_21426_371"/>
<feBlend mode="normal" in="SourceGraphic" in2="effect1_dropShadow_21426_371" result="shape"/>
</filter>
<linearGradient id="paint0_linear_21426_371" x1="-10.7454" y1="-6.83796" x2="422" y2="422" gradientUnits="userSpaceOnUse">
<stop offset="0.0249942" stop-color="#94B9FF"/>
<stop offset="0.988775" stop-color="#4385FF"/>
</linearGradient>
<radialGradient id="paint1_radial_21426_371" cx="0" cy="0" r="1" gradientUnits="userSpaceOnUse" gradientTransform="translate(153.366 126.991) rotate(49.4258) scale(223.776)">
<stop stop-color="#376A80"/>
<stop offset="1" stop-color="#013145"/>
</radialGradient>
</defs>
</svg>
